<svg xmlns="http://www.w3.org/2000/svg" xmlns:xlink="http://www.w3.org/1999/xlink" viewBox="0 0 108.75 110.25">
    <defs>
			<path id="SVGID_00000083798644908599818350000005533587745013649289_" d="M107.8,74.82c-6.09-1.46-9.84-8.02-9.33-17.29
				c2.58,2.66,4.6,4.73,6.62,6.81c0.13-0.06,0.26-0.12,0.39-0.18c-1.4-2.7-2.79-5.41-4.09-7.91
				C107.06,57.54,110.53,66.96,107.8,74.82z M4.29,46.23c1.7,2.07,3.39,4.13,5.09,6.2c0.32-0.33,0.64-0.65,0.96-0.98
				c0.75-8.34-3.53-15.59-9.4-15.96C-1.32,43.84,1.79,52.2,7.7,54.05c-1.34-2.42-2.74-4.97-4.14-7.51
				C3.8,46.44,4.05,46.33,4.29,46.23z M98.17,91.11c4.35-7.54,4.53-14.42,0.48-18.03c0.21,2.24,0.41,4.47,0.62,6.71
				c-0.16,0.01-0.32,0.03-0.48,0.04c-1.02-2.37-2.04-4.73-3.38-7.82C91.05,80.64,92.66,89.76,98.17,91.11z M10.2,37.02
				c-0.15-2.1-0.3-4.24-0.52-7.31c1.51,3.22,2.6,5.52,3.86,8.22c4.24-7.69,3.01-15.82-2.4-19.07C6.52,24.65,6.1,33.04,10.2,37.02z
				 M20.42,17.08c0.17,0.04,0.33,0.09,0.5,0.13c0.19,2.53,0.37,5.06,0.6,8.17c6.33-6.31,7.49-13.99,3.27-17.99
				c-6.28,4.56-8.91,12.15-5.97,17.09C19.34,22.06,19.88,19.57,20.42,17.08z M84.07,102.78c6.26-4.71,8.91-11.99,6.07-16.73
				c-0.51,2.07-1.01,4.12-1.52,6.18c-0.15-0.05-0.29-0.1-0.44-0.15c-0.23-2.27-0.47-4.55-0.77-7.49
				C81.2,91,80.03,98.72,84.07,102.78z M41.77,0.83C34.56,2.66,28.98,9.92,30.9,14.75c1.21-1.95,2.47-3.98,3.73-6.02
				c0.17,0.09,0.33,0.17,0.5,0.26c-0.63,2.18-1.26,4.36-2.08,7.23C40.51,12.56,43.75,6.41,41.77,0.83z M67.34,109.41
				c7.77-2.95,11.91-8.43,10.82-14.38c-1.42,2.29-2.84,4.56-4.26,6.84c-0.12-0.08-0.25-0.17-0.37-0.25c0.7-2.27,1.41-4.54,2.35-7.59
				C68.43,97.35,64.87,104.38,67.34,109.41z M50.53,5.54c-1.19,1.8-2.38,3.6-3.75,5.67c7.46-0.4,12.83-5.33,12.64-11.14
				c-6.82-0.55-13.77,3.85-14.03,8.85c1.61-1.25,3.23-2.51,4.86-3.77C50.34,5.28,50.43,5.41,50.53,5.54z M58.24,104.64
				c1.23-1.76,2.47-3.53,3.91-5.59c-7.26,0.01-12.8,5.09-12.66,11.02c6.46,0.69,13.36-3.64,14.01-8.82
				c-1.64,1.27-3.27,2.53-4.9,3.79C58.48,104.91,58.36,104.78,58.24,104.64z M66.75,7.37c-1.55,1.18-3.09,2.35-5.09,3.87
				c7.28,1.6,13.63-1.57,14.69-6.69c-5.46-2.52-15.04-0.2-15.9,4.6c1.98-0.75,4.02-1.52,6.05-2.28C66.59,7.04,66.67,7.2,66.75,7.37z
				 M48.66,100.95c-2.16,0.76-4.24,1.5-6.31,2.23c-0.05-0.16-0.09-0.31-0.14-0.47c1.56-1.2,3.12-2.4,5.2-4
				c-7.85-1.09-13.04,1.36-15.14,6.73C38.96,107.96,45.72,106.09,48.66,100.95z M13.73,52.4c2.43-1.12,4.8-2.22,7.18-3.32
				c0.18,0.23,0.35,0.47,0.53,0.7c-1.41,1.16-2.83,2.32-4.24,3.48c5.18-1.27,8.53-4.5,10.78-9.15C20.49,41.6,13.26,45.85,13.73,52.4
				z M81.03,66.09c7.71,2.15,13.84-1.44,14.24-8.39c-2.5,1.14-4.83,2.21-7.89,3.61c1.86-1.85,3.11-3.09,4.36-4.33
				C86.68,58.33,83.02,61.17,81.03,66.09z M75.06,15.61c6.21,4.06,13,3.33,15.86-1.28c-5.35-4.04-11.89-4.55-15.02-1.17
				c1.62,0.09,3.23,0.17,5.46,0.3C78.96,14.28,77.19,14.88,75.06,15.61z M27.11,96.76c2.65-0.88,4.46-1.49,6.55-2.19
				c-5.39-4.06-12.76-3.36-15.69,1.14c4.61,3.84,10.86,4.52,15.87,1.05C31.32,96.76,29.62,96.76,27.11,96.76z M91.99,71.08
				c-2.5,0.25-4.92,0.49-7.95,0.79c1.41-0.99,2.23-1.57,3.06-2.15c-0.17-0.31-0.33-0.63-0.5-0.94c-3.59,1.69-7.17,3.38-10.76,5.07
				C83.15,79.15,90.39,77.46,91.99,71.08z M32.57,35.02c-7.41-2.93-12.69-3.74-15.87,4.07c2.6-0.25,5.02-0.49,8.03-0.78
				c-1.23,0.91-1.9,1.41-2.58,1.91c0.2,0.33,0.39,0.66,0.59,0.98c3.44-1.68,6.88-3.35,10.32-5.03
				C32.9,35.79,32.74,35.41,32.57,35.02z M22.08,88.23c-1.63-0.54-3.17-1.05-4.72-1.56c0.06-0.16,0.12-0.32,0.18-0.48
				c1.49-0.08,2.98-0.17,4.69-0.26c-3.82-4.91-9.81-6.14-14.46-3.05C11.66,88.3,17.67,90.53,22.08,88.23z M101.01,27.08
				c-3.78-5.3-9.86-7.56-14.17-5.27c1.89,0.65,3.8,1.31,5.7,1.97c-0.05,0.16-0.1,0.32-0.15,0.48c-1.83,0-3.66,0-5.66,0
				C90.57,29.22,97.19,30.43,101.01,27.08z M48.82,25.67c-2.19-7.33-10.05-10.07-13.71-6.5c1.76,1.11,3.48,2.19,5.98,3.76
				c-2.08-0.28-3.24-0.44-5.28-0.71C40.21,25.53,44.14,26.84,48.82,25.67z M39.54,29.26c-3.76-5.86-10.91-6.8-15.35-1.71
				c2.38,0.54,4.59,1.05,7.06,1.61c-0.82,0.33-1.39,0.56-2.39,0.96C33.12,32.14,35.9,31.83,39.54,29.26z M84.61,82.51
				c-2.23-0.51-4.31-0.98-6.51-1.48c0.57-0.49,0.96-0.82,1.49-1.28c-3.76-2.1-6.97-0.79-10.54,0.84
				C73.61,86.78,80.55,87.62,84.61,82.51z M60.2,84.48c2.17,7.08,8.57,9.76,13.77,6.65c-1.79-1.19-3.45-2.28-5.84-3.86
				c1.95,0.23,3.01,0.36,4.06,0.48C68.62,84.74,64.78,83.31,60.2,84.48z M2.52,68.94c1.24,5.8,7.21,10.07,12,8.64
				c-1.46-0.98-2.96-1.98-4.46-2.98c0.07-0.14,0.15-0.28,0.22-0.41c1.34,0.32,2.67,0.64,4.59,1.1C11.3,69.34,7.14,67.36,2.52,68.94z
				 M98.84,36.1c-1.45-0.41-2.9-0.82-4.62-1.31c2.6,5.73,7.92,8.23,12.37,6.13c-2.6-6.41-7.72-9.86-12.32-8.25
				c0.81,0.43,1.61,0.8,2.35,1.27c0.84,0.54,1.62,1.17,2.42,1.75C98.98,35.83,98.91,35.96,98.84,36.1z M48.16,18.56
				c2.5,4.37,5.81,6.29,9.82,6.03c0.11-6.49-4.29-10.75-10.59-9.79c1.44,1.72,2.74,3.27,4.66,5.56
				C50.35,19.57,49.45,19.16,48.16,18.56z M99.41,43.97c0.93,1.15,1.89,2.33,2.86,3.51c-0.15,0.11-0.31,0.23-0.46,0.34
				c-1.17-0.73-2.34-1.46-3.8-2.37c0.95,6.1,4.86,9.61,10.03,9.24C107.48,48.47,103.7,43.9,99.41,43.97z M50.91,85.26
				c-0.1,6.77,4.31,11.03,10.6,9.97c-1.58-1.78-3.02-3.4-4.46-5.02c0.12-0.1,0.23-0.2,0.35-0.3c1.15,0.65,2.3,1.31,4.23,2.4
				C58.75,87.77,55.52,85.47,50.91,85.26z M0.73,55.65c1.32,6.74,4.07,10.1,8.8,10.69c-0.98-1.32-1.95-2.61-2.91-3.9
				c0.13-0.09,0.26-0.17,0.4-0.26c1.19,0.79,2.38,1.57,4.13,2.73C9.37,57.85,5.28,54.49,0.73,55.65z M67.16,26.87
				c2.02-5.68-0.38-10.78-5.82-11.89c0.58,1.71,1.12,3.3,1.67,4.9c-0.14,0.07-0.27,0.14-0.41,0.21c-1.09-1.21-2.17-2.42-3.4-3.79
				C59.54,21.29,62.82,25.52,67.16,26.87z M47.69,95.12c-0.71-1.82-1.39-3.53-2.06-5.25c0.14-0.06,0.28-0.12,0.42-0.18
				c1.13,1.27,2.26,2.54,3.39,3.81c-0.46-5.09-3.21-8.36-7.54-10.6C39.61,88.66,42.26,94.27,47.69,95.12z M33.45,78.29
				c-3.39,5.04-2.61,10.19,2.12,12.86c0-1.58,0-3.04,0-5.42c0.91,1.86,1.42,2.89,2.34,4.76C38.48,84.38,37.02,80.78,33.45,78.29z
				 M75.36,32.13c3.4-5.7,2.54-10.9-2.17-13.2c0.2,1.89,0.38,3.65,0.56,5.41c-0.15,0.03-0.31,0.06-0.46,0.09
				c-0.66-1.34-1.32-2.68-1.98-4.02C70.37,25.17,71.72,29.03,75.36,32.13z M25.22,82.99c0.39-1.72,0.75-3.32,1.11-4.92
				c0.13-0.01,0.26-0.03,0.4-0.04c0.25,2.31,0.5,4.61,0.82,7.54c2.83-5.12,2.9-9.57,0.09-14.31C23.36,76.19,22.18,80.17,25.22,82.99
				z M81.99,31.28c-0.09-1.98-0.19-3.96-0.3-6.28c-3.33,4.23-3.32,9.29-0.27,13.51c3.7-3.93,5.46-8.48,2.26-11.22
				c-0.38,1.4-0.75,2.72-1.11,4.04C82.37,31.31,82.18,31.3,81.99,31.28z M18.99,75.13c0.87-1.55,1.68-3,2.8-4.98
				c-0.19,1.96-0.31,3.24-0.48,4.93c3.53-4.91,3.9-6.61,2.47-11.11C18.35,66.89,16.66,70.78,18.99,75.13z M14.71,63.68
				c1.06-0.97,1.97-1.82,2.88-2.66c0.13,0.08,0.26,0.17,0.39,0.25c-0.73,1.65-1.46,3.3-2.49,5.64c4.35-3,6.94-6.12,6.9-11.13
				C17.49,56.12,14.84,58.85,14.71,63.68z M89.93,34.79c-0.87,1.75-1.57,3.16-2.72,5.48c0.23-2.39,0.37-3.81,0.53-5.51
				c-2.96,3.49-4.27,7.02-2.69,11.52C90.4,43.28,91.86,39.96,89.93,34.79z"/>
		</defs>
		<clipPath id="SVGID_00000085249205052226258760000009261802711199694512_">
			<use xlink:href="#SVGID_00000083798644908599818350000005533587745013649289_"/>
		</clipPath>
		
        <linearGradient id="SVGID_00000181789448551999393260000000900134717784315553_" gradientUnits="userSpaceOnUse" x1="-11.515" y1="55.4215" x2="119.5072" y2="55.4215">
            <stop offset="0" stop-color="#2A120A"/>
            <stop offset="0.022" stop-color="#5E3D26"/>
            <stop offset="0.1645" stop-color="#A08C5E"/>
            <stop offset="0.4912" stop-color="#CBB086"/>
            <stop offset="0.5739" stop-color="#C9B084"/>
            <stop offset="0.6534" stop-color="#C0B17F"/>
            <stop offset="0.6796" stop-color="#BCB17D"/>
            <stop offset="0.8577" stop-color="#795B3B"/>
            <stop offset="1" stop-color="#785C3D" />
		</linearGradient>

        <path style="clip-path:url(#SVGID_00000085249205052226258760000009261802711199694512_);fill:url(#SVGID_00000181789448551999393260000000900134717784315553_);" d="
			M119.51,55.42c0,36.18-29.33,65.51-65.51,65.51S-11.51,91.6-11.51,55.42S17.82-10.09,54-10.09S119.51,19.24,119.51,55.42z"/>
</svg>
