<svg xmlns="http://www.w3.org/2000/svg" xmlns:xlink="http://www.w3.org/1999/xlink" viewBox="0 0 323.23 83">
    <defs>
        <path id="SVGID_00000073690267089255759640000015134630599954663832_" d="M70.08,77.61h2.94v3.34c-0.37,0.35-0.85,0.62-1.43,0.83
            c-0.58,0.2-1.18,0.31-1.81,0.31c-0.86,0-1.62-0.19-2.28-0.56s-1.18-0.89-1.54-1.56c-0.37-0.67-0.55-1.43-0.55-2.29
            c0-0.87,0.18-1.63,0.55-2.31c0.37-0.67,0.88-1.2,1.52-1.59c0.64-0.39,1.38-0.58,2.2-0.58c0.69,0,1.31,0.14,1.87,0.43
            c0.56,0.28,1.03,0.7,1.41,1.24l-0.83,0.69c-0.59-0.87-1.41-1.31-2.46-1.31c-0.59,0-1.12,0.15-1.58,0.44
            c-0.46,0.29-0.82,0.7-1.09,1.21c-0.26,0.51-0.39,1.1-0.39,1.77s0.13,1.26,0.4,1.77c0.27,0.51,0.64,0.91,1.13,1.19
            s1.05,0.43,1.69,0.43c0.79,0,1.49-0.2,2.1-0.6V78.6h-1.84V77.61z M76.1,73.4h2.72c0.91,0,1.62,0.22,2.14,0.66
            c0.52,0.44,0.78,1.05,0.78,1.83c0,0.57-0.14,1.05-0.43,1.44s-0.68,0.68-1.19,0.86l2.02,3.69h-1.28l-1.84-3.5
            c-0.04,0-0.09,0-0.14,0h-1.65v3.5H76.1V73.4z M80.58,75.91c0-0.48-0.15-0.86-0.46-1.13c-0.31-0.27-0.73-0.41-1.26-0.41h-1.64
            v3.05h1.64c0.54,0,0.96-0.13,1.27-0.4C80.43,76.75,80.58,76.38,80.58,75.91z M84.8,73.4h1.14v8.48H84.8V73.4z M89.13,73.4h5.3
            v1.02h-4.16v2.56h3.14v1.02h-3.14v2.87h4.46v1.02h-5.61V73.4z M96.76,77.67c0-0.64,0.11-1.24,0.32-1.79s0.51-1.02,0.88-1.42
            c0.38-0.4,0.82-0.71,1.34-0.93c0.52-0.22,1.08-0.33,1.69-0.33c0.7,0,1.33,0.15,1.91,0.44c0.58,0.29,1.04,0.71,1.4,1.24
            l-0.83,0.67c-0.56-0.87-1.38-1.31-2.46-1.31c-0.59,0-1.12,0.14-1.58,0.43s-0.82,0.69-1.08,1.2c-0.26,0.51-0.39,1.11-0.39,1.79
            c0,0.66,0.13,1.25,0.38,1.75c0.25,0.51,0.61,0.91,1.06,1.2c0.45,0.29,0.97,0.43,1.56,0.43c0.99,0,1.84-0.44,2.53-1.31l0.8,0.66
            c-0.37,0.54-0.85,0.96-1.43,1.25c-0.58,0.29-1.22,0.44-1.93,0.44c-0.81,0-1.52-0.19-2.16-0.57s-1.13-0.9-1.49-1.56
            C96.94,79.29,96.76,78.53,96.76,77.67z M112.83,77.99h-4.74v3.89h-1.14V73.4h1.14v3.57h4.74V73.4h1.14v8.48h-1.14V77.99z
             M117.15,73.4h1.14v8.48h-1.14V73.4z M126.05,79.58c0-0.4-0.14-0.72-0.43-0.98c-0.28-0.25-0.73-0.45-1.33-0.6l-0.42-0.1
            c-0.82-0.19-1.43-0.48-1.81-0.86c-0.39-0.38-0.58-0.86-0.58-1.46c0-0.73,0.26-1.31,0.77-1.74c0.51-0.43,1.19-0.65,2.04-0.65
            c1.16,0,2.04,0.39,2.63,1.18l-0.76,0.71c-0.48-0.58-1.13-0.87-1.95-0.87c-0.49,0-0.88,0.11-1.16,0.34s-0.43,0.54-0.43,0.93
            c0,0.34,0.13,0.62,0.38,0.83c0.25,0.22,0.69,0.4,1.3,0.54l0.42,0.1c0.81,0.2,1.42,0.51,1.84,0.94c0.42,0.43,0.63,0.97,0.63,1.6
            c0,0.51-0.13,0.96-0.38,1.34s-0.6,0.69-1.04,0.9c-0.45,0.22-0.96,0.32-1.56,0.32c-0.62,0-1.2-0.13-1.74-0.38s-1-0.62-1.39-1.09
            l0.8-0.72c0.67,0.78,1.45,1.17,2.33,1.17c0.56,0,1-0.13,1.34-0.4C125.89,80.39,126.05,80.03,126.05,79.58z M129.7,77.67
            c0-0.64,0.11-1.24,0.32-1.79s0.51-1.02,0.88-1.42c0.38-0.4,0.82-0.71,1.34-0.93c0.52-0.22,1.08-0.33,1.69-0.33
            c0.7,0,1.33,0.15,1.91,0.44c0.58,0.29,1.04,0.71,1.4,1.24l-0.83,0.67c-0.56-0.87-1.38-1.31-2.46-1.31
            c-0.59,0-1.12,0.14-1.58,0.43s-0.82,0.69-1.08,1.2c-0.26,0.51-0.39,1.11-0.39,1.79c0,0.66,0.13,1.25,0.38,1.75
            c0.25,0.51,0.61,0.91,1.06,1.2c0.45,0.29,0.97,0.43,1.56,0.43c0.99,0,1.84-0.44,2.53-1.31l0.8,0.66
            c-0.37,0.54-0.85,0.96-1.43,1.25c-0.58,0.29-1.22,0.44-1.93,0.44c-0.81,0-1.52-0.19-2.16-0.57s-1.13-0.9-1.49-1.56
            C129.88,79.29,129.7,78.53,129.7,77.67z M145.78,77.99h-4.74v3.89h-1.14V73.4h1.14v3.57h4.74V73.4h1.14v8.48h-1.14V77.99z
             M150.1,73.4h5.3v1.02h-4.16v2.56h3.14v1.02h-3.14v2.87h4.46v1.02h-5.61V73.4z M163.05,79.58c0-0.4-0.14-0.72-0.43-0.98
            c-0.28-0.25-0.73-0.45-1.33-0.6l-0.42-0.1c-0.82-0.19-1.43-0.48-1.81-0.86c-0.39-0.38-0.58-0.86-0.58-1.46
            c0-0.73,0.26-1.31,0.77-1.74c0.51-0.43,1.19-0.65,2.04-0.65c1.16,0,2.04,0.39,2.63,1.18l-0.76,0.71
            c-0.48-0.58-1.13-0.87-1.95-0.87c-0.49,0-0.88,0.11-1.16,0.34s-0.43,0.54-0.43,0.93c0,0.34,0.13,0.62,0.38,0.83
            c0.25,0.22,0.69,0.4,1.3,0.54l0.42,0.1c0.81,0.2,1.42,0.51,1.84,0.94c0.42,0.43,0.63,0.97,0.63,1.6c0,0.51-0.13,0.96-0.38,1.34
            s-0.6,0.69-1.04,0.9c-0.45,0.22-0.96,0.32-1.56,0.32c-0.62,0-1.2-0.13-1.74-0.38s-1-0.62-1.39-1.09l0.8-0.72
            c0.67,0.78,1.45,1.17,2.33,1.17c0.56,0,1-0.13,1.34-0.4C162.88,80.39,163.05,80.03,163.05,79.58z M170.54,73.4h2.72
            c0.91,0,1.62,0.22,2.14,0.66c0.52,0.44,0.78,1.05,0.78,1.83c0,0.57-0.14,1.05-0.43,1.44s-0.68,0.68-1.19,0.86l2.02,3.69h-1.28
            l-1.84-3.5c-0.04,0-0.09,0-0.14,0h-1.65v3.5h-1.12V73.4z M175.01,75.91c0-0.48-0.15-0.86-0.46-1.13
            c-0.31-0.27-0.73-0.41-1.26-0.41h-1.64v3.05h1.64c0.54,0,0.96-0.13,1.27-0.4C174.86,76.75,175.01,76.38,175.01,75.91z
             M179.24,73.4h5.3v1.02h-4.16v2.56h3.14v1.02h-3.14v2.87h4.46v1.02h-5.61V73.4z M192.18,79.58c0-0.4-0.14-0.72-0.43-0.98
            c-0.28-0.25-0.73-0.45-1.33-0.6l-0.42-0.1c-0.82-0.19-1.43-0.48-1.81-0.86c-0.39-0.38-0.58-0.86-0.58-1.46
            c0-0.73,0.26-1.31,0.77-1.74c0.51-0.43,1.19-0.65,2.04-0.65c1.16,0,2.04,0.39,2.63,1.18l-0.76,0.71
            c-0.48-0.58-1.13-0.87-1.95-0.87c-0.49,0-0.88,0.11-1.16,0.34s-0.43,0.54-0.43,0.93c0,0.34,0.13,0.62,0.38,0.83
            c0.25,0.22,0.69,0.4,1.3,0.54l0.42,0.1c0.81,0.2,1.42,0.51,1.84,0.94c0.42,0.43,0.63,0.97,0.63,1.6c0,0.51-0.13,0.96-0.38,1.34
            s-0.6,0.69-1.04,0.9c-0.45,0.22-0.96,0.32-1.56,0.32c-0.62,0-1.2-0.13-1.74-0.38s-1-0.62-1.39-1.09l0.8-0.72
            c0.67,0.78,1.45,1.17,2.33,1.17c0.56,0,1-0.13,1.34-0.4C192.02,80.39,192.18,80.03,192.18,79.58z M198.57,74.42h-3.05V73.4h7.25
            v1.02h-3.05v7.46h-1.14V74.42z M208.99,79.47h-3.57l-0.9,2.42h-1.2l3.34-8.48h1.16l3.33,8.48h-1.26L208.99,79.47z M207.21,74.67
            l-1.44,3.83h2.86L207.21,74.67z M213,78.63V73.4h1.14v5.23c0,1.61,0.75,2.42,2.24,2.42c1.51,0,2.26-0.81,2.26-2.42V73.4h1.14
            v5.23c0,1.1-0.3,1.95-0.89,2.56c-0.59,0.6-1.43,0.9-2.52,0.9c-1.08,0-1.91-0.3-2.5-0.9C213.29,80.58,213,79.73,213,78.63z
             M222.84,73.4h2.72c0.91,0,1.62,0.22,2.14,0.66c0.52,0.44,0.78,1.05,0.78,1.83c0,0.57-0.14,1.05-0.43,1.44s-0.68,0.68-1.19,0.86
            l2.02,3.69h-1.28l-1.84-3.5c-0.04,0-0.09,0-0.14,0h-1.65v3.5h-1.12V73.4z M227.32,75.91c0-0.48-0.15-0.86-0.46-1.13
            c-0.31-0.27-0.73-0.41-1.26-0.41h-1.64v3.05h1.64c0.54,0,0.96-0.13,1.27-0.4C227.17,76.75,227.32,76.38,227.32,75.91z
             M236.51,79.47h-3.57l-0.9,2.42h-1.2l3.34-8.48h1.16l3.33,8.48h-1.26L236.51,79.47z M234.73,74.67l-1.44,3.83h2.86L234.73,74.67z
             M241.03,73.4h1.14l4.79,6.74V73.4h1.12v8.48h-1.13l-4.81-6.75v6.75h-1.12V73.4z M253.64,74.42h-3.05V73.4h7.25v1.02h-3.05v7.46
            h-1.14V74.42z"/>
    </defs>
    <clipPath id="SVGID_00000075147231013830140990000017520869458282803603_">
        <use xlink:href="#SVGID_00000073690267089255759640000015134630599954663832_" />
    </clipPath>
		
    <linearGradient id="SVGID_00000036959656712008753380000009383751655518239927_" gradientUnits="userSpaceOnUse" x1="0" y1="77.6707" x2="323.2336" y2="77.6707">
        <stop offset="0" stop-color="#2A120A"/>
        <stop offset="0.022" stop-color="#5E3D26"/>
        <stop offset="0.1645" stop-color="#A08C5E"/>
        <stop offset="0.4912" stop-color="#CBB086"/>
        <stop offset="0.5739" stop-color="#C9B084"/>
        <stop offset="0.6534" stop-color="#C0B17F"/>
        <stop offset="0.6796" stop-color="#BCB17D"/>
        <stop offset="0.8577" stop-color="#795B3B"/>
        <stop offset="1" stop-color="#785C3D" />
    </linearGradient>
		
    <rect y="70.42" style="clip-path:url(#SVGID_00000075147231013830140990000017520869458282803603_);fill:url(#SVGID_00000036959656712008753380000009383751655518239927_);" width="323.23" height="14.5"/>
    <defs>
        <path id="_x3C_Compound_Clipping_Path_x3E__00000127753478546477131690000007542876393481759914_" d="M287.42,52.58h0.07H287.42
            h-9.25c1.54,0,2.71-0.38,3.5-1.16c0.79-0.77,1.39-1.84,1.8-3.2l14.76-47.53c0.09,0.23,0.17,0.44,0.24,0.65
            c0.07,0.2,0.15,0.4,0.24,0.58l15.98,45.22c1.27,3.63,3.88,5.44,7.82,5.44h-12.72c0.82,0,1.56-0.15,2.24-0.44
            c0.68-0.29,1.02-0.92,1.02-1.87c0-0.36-0.05-0.71-0.14-1.05c-0.09-0.34-0.18-0.69-0.27-1.05l-8.5-23.94
            c-2.36,0.68-4.43,1.52-6.22,2.52s-3.38,2.18-4.76,3.54c-1.38,1.36-2.61,2.92-3.67,4.69c-1.07,1.77-2.05,3.79-2.96,6.05
            c-0.18,0.59-0.41,1.24-0.68,1.94c-0.27,0.7-0.52,1.43-0.75,2.18c-0.23,0.75-0.43,1.5-0.61,2.24c-0.18,0.75-0.27,1.44-0.27,2.07
            C284.22,51.54,285.29,52.58,287.42,52.58z M303.87,23.54l-6.32-17.95l-10.61,34.07c1.5-4.26,3.58-7.74,6.26-10.44
            C295.87,26.52,299.43,24.63,303.87,23.54z M9.98,52.58h0.07H9.98H0.73c1.54,0,2.71-0.38,3.5-1.16c0.79-0.77,1.39-1.84,1.8-3.2
            L20.79,0.69c0.09,0.23,0.17,0.44,0.24,0.65c0.07,0.2,0.15,0.4,0.24,0.58l15.98,45.22c1.27,3.63,3.88,5.44,7.82,5.44H32.35
            c0.82,0,1.56-0.15,2.24-0.44c0.68-0.29,1.02-0.92,1.02-1.87c0-0.36-0.05-0.71-0.14-1.05c-0.09-0.34-0.18-0.69-0.27-1.05
            l-8.5-23.94c-2.36,0.68-4.43,1.52-6.22,2.52s-3.38,2.18-4.76,3.54c-1.38,1.36-2.61,2.92-3.67,4.69
            c-1.07,1.77-2.05,3.79-2.96,6.05c-0.18,0.59-0.41,1.24-0.68,1.94c-0.27,0.7-0.52,1.43-0.75,2.18c-0.23,0.75-0.43,1.5-0.61,2.24
            c-0.18,0.75-0.27,1.44-0.27,2.07C6.78,51.54,7.84,52.58,9.98,52.58z M26.43,23.54L20.11,5.59L9.5,39.66
            c1.5-4.26,3.58-7.74,6.26-10.44C18.43,26.52,21.99,24.63,26.43,23.54z M59.28,52.58h0.14H59.28h-9.59h-0.07h0.07
            c0.82,0,1.51-0.16,2.07-0.48c0.57-0.32,1.03-0.75,1.39-1.29c0.36-0.54,0.62-1.16,0.78-1.84c0.16-0.68,0.24-1.38,0.24-2.11V6.41
            c0-1.45-0.34-2.75-1.02-3.91c-0.68-1.16-1.84-1.76-3.47-1.8h-0.07h0.07h6.39c0.14,3.45,0.44,6.56,0.92,9.35
            c0.48,2.79,1.16,5.44,2.04,7.96c0.88,2.52,2.02,4.99,3.4,7.41c1.38,2.43,3.09,5,5.13,7.72c1.77,2.36,3.34,4.65,4.73,6.87
            c1.38,2.22,2.53,4.76,3.43,7.62c0.45-1.4,0.97-2.71,1.56-3.91c0.59-1.2,1.22-2.37,1.9-3.5c0.68-1.13,1.43-2.24,2.24-3.33
            s1.65-2.2,2.52-3.33c2.13-2.72,3.92-5.29,5.37-7.72c1.45-2.42,2.64-4.92,3.57-7.48c0.93-2.56,1.63-5.26,2.11-8.09
            c0.48-2.83,0.78-6.02,0.92-9.55h7.14h0.07h-0.07c-1.63,0.05-2.78,0.65-3.43,1.8c-0.66,1.16-0.99,2.46-0.99,3.91v40.46
            c0,0.73,0.08,1.43,0.24,2.11c0.16,0.68,0.41,1.29,0.75,1.84s0.79,0.98,1.36,1.29c0.57,0.32,1.26,0.48,2.07,0.48h0.07h-0.07H91.85
            h-0.07h0.07c0.82,0,1.51-0.16,2.07-0.48c0.57-0.32,1.03-0.75,1.39-1.29c0.36-0.54,0.62-1.16,0.78-1.84
            c0.16-0.68,0.24-1.38,0.24-2.11V5.93c-0.32,2.99-0.77,5.7-1.36,8.13c-0.59,2.43-1.36,4.73-2.31,6.9
            c-0.95,2.18-2.1,4.31-3.43,6.39c-1.34,2.09-2.89,4.31-4.66,6.66c-1.18,1.54-2.26,3-3.23,4.39c-0.98,1.38-1.85,2.79-2.62,4.22
            c-0.77,1.43-1.45,2.95-2.04,4.56c-0.59,1.61-1.07,3.39-1.43,5.34h-0.68c-0.64-3.58-1.73-6.77-3.3-9.55
            c-1.56-2.79-3.41-5.61-5.54-8.47c-1.5-1.99-2.81-3.85-3.94-5.58c-1.13-1.72-2.13-3.47-2.99-5.24c-0.86-1.77-1.6-3.64-2.21-5.61
            c-0.61-1.97-1.17-4.2-1.67-6.7v35.5c0,0.73,0.08,1.43,0.24,2.11c0.16,0.68,0.41,1.29,0.75,1.84s0.78,0.98,1.33,1.29
            C57.78,52.42,58.46,52.58,59.28,52.58z M129.32,52.58h-19.79h-0.07h0.07c0.82,0,1.5-0.16,2.04-0.48c0.54-0.32,1-0.75,1.36-1.29
            c0.36-0.54,0.62-1.16,0.78-1.84c0.16-0.68,0.24-1.38,0.24-2.11V6.41c0-0.72-0.08-1.43-0.24-2.11c-0.16-0.68-0.42-1.29-0.78-1.84
            c-0.36-0.54-0.82-0.97-1.36-1.29c-0.54-0.32-1.22-0.48-2.04-0.48h-0.07h17.41c1.63,0,3.16,0.31,4.59,0.92s2.67,1.45,3.74,2.52
            c1.06,1.07,1.9,2.31,2.52,3.74c0.61,1.43,0.92,2.96,0.92,4.59c0,1.41-0.23,2.74-0.68,4.01c-0.45,1.27-1.1,2.43-1.94,3.47
            c-0.84,1.04-1.83,1.93-2.96,2.65c-1.13,0.73-2.38,1.22-3.74,1.5v0.07c1.95,0.18,3.82,0.6,5.61,1.26s3.38,1.56,4.76,2.72
            c1.38,1.16,2.49,2.55,3.33,4.18c0.84,1.63,1.26,3.51,1.26,5.64c0,2.04-0.4,3.94-1.19,5.71c-0.79,1.77-1.87,3.32-3.23,4.66
            c-1.36,1.34-2.95,2.38-4.76,3.13S131.36,52.58,129.32,52.58z M116.19,6.41V31.5c0.32-1.18,0.85-2.24,1.6-3.2s1.62-1.76,2.62-2.41
            c1-0.66,2.08-1.16,3.26-1.5c1.18-0.34,2.36-0.51,3.54-0.51c1.31,0,2.47-0.38,3.47-1.16c1-0.77,1.86-1.73,2.58-2.89
            c0.72-1.16,1.27-2.4,1.63-3.74c0.36-1.34,0.54-2.55,0.54-3.64c0-1.18-0.19-2.41-0.58-3.71c-0.39-1.29-0.94-2.48-1.67-3.57
            c-0.73-1.09-1.62-1.98-2.69-2.69c-1.07-0.7-2.28-1.05-3.64-1.05h-6.19c-1.72,0-2.9,0.41-3.54,1.22
            C116.51,3.48,116.19,4.73,116.19,6.41z M120.68,51.83h9.04c1.77,0,3.35-0.42,4.76-1.26c1.4-0.84,2.59-1.93,3.57-3.26
            s1.71-2.83,2.21-4.49c0.5-1.65,0.75-3.27,0.75-4.86c0-1.9-0.36-3.68-1.09-5.34c-0.73-1.65-1.72-3.09-2.99-4.32
            c-1.27-1.22-2.74-2.2-4.42-2.92c-1.68-0.72-3.45-1.09-5.3-1.09c-1.5,0-2.91,0.24-4.25,0.71c-1.34,0.48-2.51,1.16-3.5,2.04
            c-1,0.88-1.79,1.96-2.38,3.23c-0.59,1.27-0.88,2.7-0.88,4.28v12.31c0,1.68,0.32,2.92,0.95,3.74
            C117.78,51.42,118.96,51.83,120.68,51.83z M151.62,6.68c0-0.68-0.08-1.35-0.24-2.01c-0.16-0.66-0.41-1.26-0.75-1.8
            s-0.79-0.99-1.36-1.33c-0.57-0.34-1.24-0.51-2.01-0.51h-0.07h0.07h14.62c2.45,0,4.69,0.48,6.73,1.43
            c2.04,0.95,3.79,2.23,5.24,3.84c1.45,1.61,2.58,3.48,3.4,5.61c0.82,2.13,1.22,4.38,1.22,6.73c0,1.95-0.28,3.84-0.85,5.68
            c-0.57,1.84-1.39,3.51-2.48,5.03c-1.09,1.52-2.41,2.83-3.98,3.94c-1.56,1.11-3.32,1.92-5.27,2.41c2.86,0.36,5.42,1.1,7.68,2.21
            c2.27,1.11,4.41,2.39,6.43,3.84c2.02,1.45,3.98,2.97,5.88,4.56c1.9,1.59,3.92,3.04,6.05,4.35s4.43,2.41,6.9,3.3
            c2.47,0.88,5.29,1.33,8.47,1.33c1.63,0,3.31-0.14,5.03-0.41c1.72-0.27,3.41-0.7,5.07-1.29c1.65-0.59,3.21-1.35,4.66-2.28
            c1.45-0.93,2.72-2.03,3.81-3.3c-0.82,1.5-1.98,2.8-3.5,3.91c-1.52,1.11-3.2,2.03-5.03,2.75c-1.84,0.72-3.71,1.27-5.61,1.63
            c-1.9,0.36-3.67,0.54-5.3,0.54c-2.45,0-4.78-0.28-7-0.85c-2.22-0.57-4.36-1.35-6.43-2.35c-2.06-1-4.05-2.16-5.95-3.5
            c-1.9-1.34-3.79-2.75-5.64-4.25c-1.95-1.63-3.75-3.04-5.41-4.22c-1.66-1.18-3.33-2.16-5.03-2.96c-1.7-0.79-3.54-1.39-5.51-1.8
            c-1.97-0.41-4.25-0.66-6.83-0.75v-0.82h1.36h2.04c2.13,0,4.01-0.52,5.64-1.56c1.63-1.04,3.01-2.37,4.15-3.98
            c1.13-1.61,1.98-3.4,2.55-5.37c0.57-1.97,0.85-3.91,0.85-5.81c0-1.9-0.3-3.85-0.88-5.85c-0.59-1.99-1.45-3.81-2.58-5.44
            c-1.13-1.63-2.53-2.97-4.18-4.01c-1.66-1.04-3.55-1.56-5.68-1.56l-2.86-0.07c-1.86,0-3.17,0.33-3.94,0.99
            c-0.77,0.66-1.16,1.98-1.16,3.98v40.26c0,1.41,0.33,2.69,0.99,3.84c0.66,1.16,1.78,1.76,3.37,1.8h0.14h-11.15h-0.07h0.07
            c0.77,0,1.44-0.17,2.01-0.51c0.57-0.34,1.02-0.78,1.36-1.33s0.59-1.14,0.75-1.8c0.16-0.66,0.24-1.33,0.24-2.01V6.68z M206.5,0.76
            c3.17,0,6.19,0.66,9.04,1.97c2.86,1.32,5.36,3.07,7.51,5.27c2.15,2.2,3.86,4.75,5.13,7.65c1.27,2.9,1.9,5.92,1.9,9.04
            c0,3.4-0.57,6.6-1.7,9.59c-1.13,2.99-2.73,5.6-4.79,7.82c-2.06,2.22-4.53,3.97-7.41,5.24c-2.88,1.27-6.06,1.9-9.55,1.9
            c-3.13,0-6.12-0.66-8.98-1.97c-2.86-1.31-5.36-3.07-7.51-5.27c-2.15-2.2-3.87-4.74-5.13-7.62c-1.27-2.88-1.9-5.88-1.9-9.01
            c0-3.35,0.57-6.53,1.7-9.52c1.13-2.99,2.73-5.61,4.79-7.85c2.06-2.24,4.53-4.01,7.41-5.3C199.89,1.41,203.05,0.76,206.5,0.76z
             M185.55,23.54c0,3.17,0.54,6.26,1.63,9.25s2.63,5.66,4.62,7.99c1.99,2.33,4.37,4.21,7.14,5.61c2.76,1.41,5.85,2.11,9.25,2.11
            c2.86,0,5.47-0.65,7.85-1.94c2.38-1.29,4.43-2.97,6.15-5.03c1.72-2.06,3.06-4.41,4.01-7.04c0.95-2.63,1.43-5.28,1.43-7.96
            c0-3.17-0.54-6.26-1.63-9.25c-1.09-2.99-2.62-5.66-4.59-7.99c-1.97-2.33-4.35-4.21-7.14-5.61c-2.79-1.4-5.86-2.11-9.21-2.11
            c-2.86,0-5.49,0.64-7.89,1.9c-2.4,1.27-4.47,2.95-6.19,5.03c-1.72,2.09-3.06,4.43-4.01,7.04
            C186.03,18.16,185.55,20.82,185.55,23.54z M203.51,25.04c0.23-0.23,0.51-0.44,0.85-0.65c0.34-0.2,0.65-0.42,0.92-0.65
            c0.32-0.23,0.55-0.52,0.71-0.88c0.16-0.36,0.35-0.63,0.58-0.82c0.27,0.23,0.49,0.52,0.65,0.88c0.16,0.36,0.4,0.66,0.71,0.88
            c0.27,0.23,0.59,0.43,0.95,0.61c0.36,0.18,0.66,0.39,0.88,0.61c-0.05,0.09-0.2,0.25-0.48,0.48c-0.27,0.23-0.56,0.48-0.85,0.75
            c-0.29,0.27-0.6,0.56-0.92,0.85s-0.59,0.58-0.82,0.85h-0.27c-0.18-0.27-0.43-0.55-0.75-0.85s-0.62-0.58-0.92-0.85
            c-0.29-0.27-0.56-0.52-0.78-0.75C203.75,25.29,203.6,25.13,203.51,25.04z M231.59,50.47l3.13-2.31c1.63,1.13,3.4,2.01,5.3,2.62
            c1.9,0.61,3.85,0.92,5.85,0.92c1.72,0,3.32-0.25,4.79-0.75c1.47-0.5,2.75-1.23,3.84-2.21c1.09-0.97,1.94-2.16,2.55-3.57
            c0.61-1.4,0.92-2.99,0.92-4.76c0-1.81-0.34-3.37-1.02-4.66c-0.68-1.29-1.58-2.44-2.69-3.43c-1.11-1-2.38-1.9-3.81-2.72
            c-1.43-0.82-2.89-1.62-4.39-2.41c-1.5-0.79-2.96-1.63-4.39-2.52c-1.43-0.88-2.71-1.93-3.84-3.13c-1.13-1.2-2.04-2.58-2.72-4.15
            s-1.02-3.43-1.02-5.61c0-1.86,0.33-3.49,0.99-4.9s1.56-2.56,2.72-3.47c1.16-0.91,2.5-1.59,4.05-2.04
            c1.54-0.45,3.17-0.68,4.9-0.68c1.59,0,3.12,0.24,4.59,0.71c1.47,0.48,2.87,1.15,4.18,2.01l-0.75,2.65
            c-1.18-1.63-2.58-2.83-4.22-3.6c-1.63-0.77-3.45-1.16-5.44-1.16c-1.36,0-2.64,0.24-3.84,0.71c-1.2,0.48-2.26,1.15-3.16,2.01
            c-0.91,0.86-1.62,1.88-2.14,3.06c-0.52,1.18-0.78,2.45-0.78,3.81c0,2.49,0.59,4.52,1.77,6.09c1.18,1.56,2.65,2.94,4.42,4.11
            c1.77,1.18,3.67,2.26,5.71,3.23s3.94,2.12,5.71,3.43c1.77,1.32,3.24,2.91,4.42,4.79c1.18,1.88,1.77,4.3,1.77,7.24
            c0,1.86-0.32,3.56-0.95,5.1s-1.53,2.86-2.69,3.94c-1.16,1.09-2.52,1.94-4.08,2.55c-1.56,0.61-3.28,0.92-5.13,0.92
            c-2.45,0-4.87-0.17-7.28-0.51C236.46,51.46,234.04,51.01,231.59,50.47z M261.85,0.69h11.29c-0.82,0-1.51,0.16-2.07,0.48
            c-0.57,0.32-1.03,0.75-1.39,1.29c-0.36,0.54-0.62,1.16-0.78,1.84c-0.16,0.68-0.24,1.38-0.24,2.11v40.46
            c0,0.73,0.08,1.43,0.24,2.11c0.16,0.68,0.42,1.29,0.78,1.84s0.83,0.98,1.39,1.29c0.57,0.32,1.26,0.48,2.07,0.48h-11.29
            c0.82,0,1.51-0.16,2.07-0.48c0.57-0.32,1.04-0.75,1.43-1.29c0.38-0.54,0.66-1.16,0.82-1.84c0.16-0.68,0.24-1.38,0.24-2.11V6.41
            c0-0.72-0.08-1.43-0.24-2.11c-0.16-0.68-0.43-1.29-0.82-1.84c-0.39-0.54-0.86-0.97-1.43-1.29
            C263.36,0.85,262.67,0.69,261.85,0.69z"/>
    </defs>
    <clipPath id="_x3C_Compound_Clipping_Path_x3E__00000091720060663624039880000008829908362408955295_">
        <use xlink:href="#_x3C_Compound_Clipping_Path_x3E__00000127753478546477131690000007542876393481759914_"/>
    </clipPath>
        <linearGradient id="SVGID_00000067209181640676546920000014357621073084877734_" gradientUnits="userSpaceOnUse" x1="-37.4935" y1="29.5" x2="381.5065" y2="29.5">
            <stop offset="0" stop-color="#2A120A"/>
            <stop offset="0.022" stop-color="#5E3D26"/>
            <stop offset="0.1645" stop-color="#A08C5E"/>
            <stop offset="0.4912" stop-color="#CBB086"/>
            <stop offset="0.5739" stop-color="#C9B084"/>
            <stop offset="0.6534" stop-color="#C0B17F"/>
            <stop offset="0.6796" stop-color="#BCB17D"/>
            <stop offset="0.8577" stop-color="#795B3B"/>
            <stop offset="1" stop-color="#785C3D" />
    </linearGradient>
    <rect x="-37.49" style="clip-path:url(#_x3C_Compound_Clipping_Path_x3E__00000091720060663624039880000008829908362408955295_);fill:url(#SVGID_00000067209181640676546920000014357621073084877734_);" width="419" height="59"/>
</svg>
