<svg xmlns="http://www.w3.org/2000/svg" xmlns:xlink="http://www.w3.org/1999/xlink" viewBox="0 0 323.23 56.5">
<defs>
			<path id="_x3C_Compound_Clipping_Path_x3E__00000127753478546477131690000007542876393481759914_" d="M287.42,52.08h0.07H287.42
				h-9.25c1.54,0,2.71-0.38,3.5-1.16c0.79-0.77,1.39-1.84,1.8-3.2l14.76-47.53c0.09,0.23,0.17,0.44,0.24,0.65
				c0.07,0.2,0.15,0.4,0.24,0.58l15.98,45.22c1.27,3.63,3.88,5.44,7.82,5.44h-12.72c0.82,0,1.56-0.15,2.24-0.44
				c0.68-0.29,1.02-0.92,1.02-1.87c0-0.36-0.05-0.71-0.14-1.05c-0.09-0.34-0.18-0.69-0.27-1.05l-8.5-23.94
				c-2.36,0.68-4.43,1.52-6.22,2.52s-3.38,2.18-4.76,3.54c-1.38,1.36-2.61,2.92-3.67,4.69c-1.07,1.77-2.05,3.79-2.96,6.05
				c-0.18,0.59-0.41,1.24-0.68,1.94c-0.27,0.7-0.52,1.43-0.75,2.18c-0.23,0.75-0.43,1.5-0.61,2.24c-0.18,0.75-0.27,1.44-0.27,2.07
				C284.22,51.04,285.29,52.08,287.42,52.08z M303.87,23.04l-6.32-17.95l-10.61,34.07c1.5-4.26,3.58-7.74,6.26-10.44
				C295.87,26.02,299.43,24.13,303.87,23.04z M9.98,52.08h0.07H9.98H0.73c1.54,0,2.71-0.38,3.5-1.16c0.79-0.77,1.39-1.84,1.8-3.2
				L20.79,0.19c0.09,0.23,0.17,0.44,0.24,0.65c0.07,0.2,0.15,0.4,0.24,0.58l15.98,45.22c1.27,3.63,3.88,5.44,7.82,5.44H32.35
				c0.82,0,1.56-0.15,2.24-0.44c0.68-0.29,1.02-0.92,1.02-1.87c0-0.36-0.05-0.71-0.14-1.05c-0.09-0.34-0.18-0.69-0.27-1.05
				l-8.5-23.94c-2.36,0.68-4.43,1.52-6.22,2.52s-3.38,2.18-4.76,3.54c-1.38,1.36-2.61,2.92-3.67,4.69
				c-1.07,1.77-2.05,3.79-2.96,6.05c-0.18,0.59-0.41,1.24-0.68,1.94c-0.27,0.7-0.52,1.43-0.75,2.18c-0.23,0.75-0.43,1.5-0.61,2.24
				c-0.18,0.75-0.27,1.44-0.27,2.07C6.78,51.04,7.84,52.08,9.98,52.08z M26.43,23.04L20.11,5.09L9.5,39.16
				c1.5-4.26,3.58-7.74,6.26-10.44C18.43,26.02,21.99,24.13,26.43,23.04z M59.28,52.08h0.14H59.28h-9.59h-0.07h0.07
				c0.82,0,1.51-0.16,2.07-0.48c0.57-0.32,1.03-0.75,1.39-1.29c0.36-0.54,0.62-1.16,0.78-1.84c0.16-0.68,0.24-1.38,0.24-2.11V5.91
				c0-1.45-0.34-2.75-1.02-3.91c-0.68-1.16-1.84-1.76-3.47-1.8h-0.07h0.07h6.39c0.14,3.45,0.44,6.56,0.92,9.35
				c0.48,2.79,1.16,5.44,2.04,7.96c0.88,2.52,2.02,4.99,3.4,7.41c1.38,2.43,3.09,5,5.13,7.72c1.77,2.36,3.34,4.65,4.73,6.87
				c1.38,2.22,2.53,4.76,3.43,7.62c0.45-1.4,0.97-2.71,1.56-3.91c0.59-1.2,1.22-2.37,1.9-3.5c0.68-1.13,1.43-2.24,2.24-3.33
				s1.65-2.2,2.52-3.33c2.13-2.72,3.92-5.29,5.37-7.72c1.45-2.42,2.64-4.92,3.57-7.48c0.93-2.56,1.63-5.26,2.11-8.09
				c0.48-2.83,0.78-6.02,0.92-9.55h7.14h0.07h-0.07c-1.63,0.05-2.78,0.65-3.43,1.8c-0.66,1.16-0.99,2.46-0.99,3.91v40.46
				c0,0.73,0.08,1.43,0.24,2.11c0.16,0.68,0.41,1.29,0.75,1.84s0.79,0.98,1.36,1.29c0.57,0.32,1.26,0.48,2.07,0.48h0.07h-0.07H91.85
				h-0.07h0.07c0.82,0,1.51-0.16,2.07-0.48c0.57-0.32,1.03-0.75,1.39-1.29c0.36-0.54,0.62-1.16,0.78-1.84
				c0.16-0.68,0.24-1.38,0.24-2.11V5.43c-0.32,2.99-0.77,5.7-1.36,8.13c-0.59,2.43-1.36,4.73-2.31,6.9
				c-0.95,2.18-2.1,4.31-3.43,6.39c-1.34,2.09-2.89,4.31-4.66,6.66c-1.18,1.54-2.26,3-3.23,4.39c-0.98,1.38-1.85,2.79-2.62,4.22
				c-0.77,1.43-1.45,2.95-2.04,4.56c-0.59,1.61-1.07,3.39-1.43,5.34h-0.68c-0.64-3.58-1.73-6.77-3.3-9.55
				c-1.56-2.79-3.41-5.61-5.54-8.47c-1.5-1.99-2.81-3.85-3.94-5.58c-1.13-1.72-2.13-3.47-2.99-5.24c-0.86-1.77-1.6-3.64-2.21-5.61
				c-0.61-1.97-1.17-4.2-1.67-6.7v35.5c0,0.73,0.08,1.43,0.24,2.11c0.16,0.68,0.41,1.29,0.75,1.84s0.78,0.98,1.33,1.29
				C57.78,51.92,58.46,52.08,59.28,52.08z M129.32,52.08h-19.79h-0.07h0.07c0.82,0,1.5-0.16,2.04-0.48c0.54-0.32,1-0.75,1.36-1.29
				c0.36-0.54,0.62-1.16,0.78-1.84c0.16-0.68,0.24-1.38,0.24-2.11V5.91c0-0.72-0.08-1.43-0.24-2.11c-0.16-0.68-0.42-1.29-0.78-1.84
				c-0.36-0.54-0.82-0.97-1.36-1.29c-0.54-0.32-1.22-0.48-2.04-0.48h-0.07h17.41c1.63,0,3.16,0.31,4.59,0.92s2.67,1.45,3.74,2.52
				c1.06,1.07,1.9,2.31,2.52,3.74c0.61,1.43,0.92,2.96,0.92,4.59c0,1.41-0.23,2.74-0.68,4.01c-0.45,1.27-1.1,2.43-1.94,3.47
				c-0.84,1.04-1.83,1.93-2.96,2.65c-1.13,0.73-2.38,1.22-3.74,1.5v0.07c1.95,0.18,3.82,0.6,5.61,1.26s3.38,1.56,4.76,2.72
				c1.38,1.16,2.49,2.55,3.33,4.18c0.84,1.63,1.26,3.51,1.26,5.64c0,2.04-0.4,3.94-1.19,5.71c-0.79,1.77-1.87,3.32-3.23,4.66
				c-1.36,1.34-2.95,2.38-4.76,3.13S131.36,52.08,129.32,52.08z M116.19,5.91V31c0.32-1.18,0.85-2.24,1.6-3.2s1.62-1.76,2.62-2.41
				c1-0.66,2.08-1.16,3.26-1.5c1.18-0.34,2.36-0.51,3.54-0.51c1.31,0,2.47-0.38,3.47-1.16c1-0.77,1.86-1.73,2.58-2.89
				c0.72-1.16,1.27-2.4,1.63-3.74c0.36-1.34,0.54-2.55,0.54-3.64c0-1.18-0.19-2.41-0.58-3.71c-0.39-1.29-0.94-2.48-1.67-3.57
				c-0.73-1.09-1.62-1.98-2.69-2.69c-1.07-0.7-2.28-1.05-3.64-1.05h-6.19c-1.72,0-2.9,0.41-3.54,1.22
				C116.51,2.98,116.19,4.23,116.19,5.91z M120.68,51.33h9.04c1.77,0,3.35-0.42,4.76-1.26c1.4-0.84,2.59-1.93,3.57-3.26
				s1.71-2.83,2.21-4.49c0.5-1.65,0.75-3.27,0.75-4.86c0-1.9-0.36-3.68-1.09-5.34c-0.73-1.65-1.72-3.09-2.99-4.32
				c-1.27-1.22-2.74-2.2-4.42-2.92c-1.68-0.72-3.45-1.09-5.3-1.09c-1.5,0-2.91,0.24-4.25,0.71c-1.34,0.48-2.51,1.16-3.5,2.04
				c-1,0.88-1.79,1.96-2.38,3.23c-0.59,1.27-0.88,2.7-0.88,4.28v12.31c0,1.68,0.32,2.92,0.95,3.74
				C117.78,50.92,118.96,51.33,120.68,51.33z M151.62,6.18c0-0.68-0.08-1.35-0.24-2.01c-0.16-0.66-0.41-1.26-0.75-1.8
				s-0.79-0.99-1.36-1.33c-0.57-0.34-1.24-0.51-2.01-0.51h-0.07h0.07h14.62c2.45,0,4.69,0.48,6.73,1.43
				c2.04,0.95,3.79,2.23,5.24,3.84c1.45,1.61,2.58,3.48,3.4,5.61c0.82,2.13,1.22,4.38,1.22,6.73c0,1.95-0.28,3.84-0.85,5.68
				c-0.57,1.84-1.39,3.51-2.48,5.03c-1.09,1.52-2.41,2.83-3.98,3.94c-1.56,1.11-3.32,1.92-5.27,2.41c2.86,0.36,5.42,1.1,7.68,2.21
				c2.27,1.11,4.41,2.39,6.43,3.84c2.02,1.45,3.98,2.97,5.88,4.56c1.9,1.59,3.92,3.04,6.05,4.35s4.43,2.41,6.9,3.3
				c2.47,0.88,5.29,1.33,8.47,1.33c1.63,0,3.31-0.14,5.03-0.41c1.72-0.27,3.41-0.7,5.07-1.29c1.65-0.59,3.21-1.35,4.66-2.28
				c1.45-0.93,2.72-2.03,3.81-3.3c-0.82,1.5-1.98,2.8-3.5,3.91c-1.52,1.11-3.2,2.03-5.03,2.75c-1.84,0.72-3.71,1.27-5.61,1.63
				c-1.9,0.36-3.67,0.54-5.3,0.54c-2.45,0-4.78-0.28-7-0.85c-2.22-0.57-4.36-1.35-6.43-2.35c-2.06-1-4.05-2.16-5.95-3.5
				c-1.9-1.34-3.79-2.75-5.64-4.25c-1.95-1.63-3.75-3.04-5.41-4.22c-1.66-1.18-3.33-2.16-5.03-2.96c-1.7-0.79-3.54-1.39-5.51-1.8
				c-1.97-0.41-4.25-0.66-6.83-0.75v-0.82h1.36h2.04c2.13,0,4.01-0.52,5.64-1.56c1.63-1.04,3.01-2.37,4.15-3.98
				c1.13-1.61,1.98-3.4,2.55-5.37c0.57-1.97,0.85-3.91,0.85-5.81c0-1.9-0.3-3.85-0.88-5.85c-0.59-1.99-1.45-3.81-2.58-5.44
				c-1.13-1.63-2.53-2.97-4.18-4.01c-1.66-1.04-3.55-1.56-5.68-1.56l-2.86-0.07c-1.86,0-3.17,0.33-3.94,0.99
				c-0.77,0.66-1.16,1.98-1.16,3.98v40.26c0,1.41,0.33,2.69,0.99,3.84c0.66,1.16,1.78,1.76,3.37,1.8h0.14h-11.15h-0.07h0.07
				c0.77,0,1.44-0.17,2.01-0.51c0.57-0.34,1.02-0.78,1.36-1.33s0.59-1.14,0.75-1.8c0.16-0.66,0.24-1.33,0.24-2.01V6.18z M206.5,0.26
				c3.17,0,6.19,0.66,9.04,1.97c2.86,1.32,5.36,3.07,7.51,5.27c2.15,2.2,3.86,4.75,5.13,7.65c1.27,2.9,1.9,5.92,1.9,9.04
				c0,3.4-0.57,6.6-1.7,9.59c-1.13,2.99-2.73,5.6-4.79,7.82c-2.06,2.22-4.53,3.97-7.41,5.24c-2.88,1.27-6.06,1.9-9.55,1.9
				c-3.13,0-6.12-0.66-8.98-1.97c-2.86-1.31-5.36-3.07-7.51-5.27c-2.15-2.2-3.87-4.74-5.13-7.62c-1.27-2.88-1.9-5.88-1.9-9.01
				c0-3.35,0.57-6.53,1.7-9.52c1.13-2.99,2.73-5.61,4.79-7.85c2.06-2.24,4.53-4.01,7.41-5.3C199.89,0.91,203.05,0.26,206.5,0.26z
				 M185.55,23.04c0,3.17,0.54,6.26,1.63,9.25s2.63,5.66,4.62,7.99c1.99,2.33,4.37,4.21,7.14,5.61c2.76,1.41,5.85,2.11,9.25,2.11
				c2.86,0,5.47-0.65,7.85-1.94c2.38-1.29,4.43-2.97,6.15-5.03c1.72-2.06,3.06-4.41,4.01-7.04c0.95-2.63,1.43-5.28,1.43-7.96
				c0-3.17-0.54-6.26-1.63-9.25c-1.09-2.99-2.62-5.66-4.59-7.99c-1.97-2.33-4.35-4.21-7.14-5.61c-2.79-1.4-5.86-2.11-9.21-2.11
				c-2.86,0-5.49,0.64-7.89,1.9c-2.4,1.27-4.47,2.95-6.19,5.03c-1.72,2.09-3.06,4.43-4.01,7.04
				C186.03,17.66,185.55,20.32,185.55,23.04z M203.51,24.54c0.23-0.23,0.51-0.44,0.85-0.65c0.34-0.2,0.65-0.42,0.92-0.65
				c0.32-0.23,0.55-0.52,0.71-0.88c0.16-0.36,0.35-0.63,0.58-0.82c0.27,0.23,0.49,0.52,0.65,0.88c0.16,0.36,0.4,0.66,0.71,0.88
				c0.27,0.23,0.59,0.43,0.95,0.61c0.36,0.18,0.66,0.39,0.88,0.61c-0.05,0.09-0.2,0.25-0.48,0.48c-0.27,0.23-0.56,0.48-0.85,0.75
				c-0.29,0.27-0.6,0.56-0.92,0.85s-0.59,0.58-0.82,0.85h-0.27c-0.18-0.27-0.43-0.55-0.75-0.85s-0.62-0.58-0.92-0.85
				c-0.29-0.27-0.56-0.52-0.78-0.75C203.75,24.79,203.6,24.63,203.51,24.54z M231.59,49.97l3.13-2.31c1.63,1.13,3.4,2.01,5.3,2.62
				c1.9,0.61,3.85,0.92,5.85,0.92c1.72,0,3.32-0.25,4.79-0.75c1.47-0.5,2.75-1.23,3.84-2.21c1.09-0.97,1.94-2.16,2.55-3.57
				c0.61-1.4,0.92-2.99,0.92-4.76c0-1.81-0.34-3.37-1.02-4.66c-0.68-1.29-1.58-2.44-2.69-3.43c-1.11-1-2.38-1.9-3.81-2.72
				c-1.43-0.82-2.89-1.62-4.39-2.41c-1.5-0.79-2.96-1.63-4.39-2.52c-1.43-0.88-2.71-1.93-3.84-3.13c-1.13-1.2-2.04-2.58-2.72-4.15
				s-1.02-3.43-1.02-5.61c0-1.86,0.33-3.49,0.99-4.9s1.56-2.56,2.72-3.47c1.16-0.91,2.5-1.59,4.05-2.04
				c1.54-0.45,3.17-0.68,4.9-0.68c1.59,0,3.12,0.24,4.59,0.71c1.47,0.48,2.87,1.15,4.18,2.01l-0.75,2.65
				c-1.18-1.63-2.58-2.83-4.22-3.6c-1.63-0.77-3.45-1.16-5.44-1.16c-1.36,0-2.64,0.24-3.84,0.71c-1.2,0.48-2.26,1.15-3.16,2.01
				c-0.91,0.86-1.62,1.88-2.14,3.06c-0.52,1.18-0.78,2.45-0.78,3.81c0,2.49,0.59,4.52,1.77,6.09c1.18,1.56,2.65,2.94,4.42,4.11
				c1.77,1.18,3.67,2.26,5.71,3.23s3.94,2.12,5.71,3.43c1.77,1.32,3.24,2.91,4.42,4.79c1.18,1.88,1.77,4.3,1.77,7.24
				c0,1.86-0.32,3.56-0.95,5.1s-1.53,2.86-2.69,3.94c-1.16,1.09-2.52,1.94-4.08,2.55c-1.56,0.61-3.28,0.92-5.13,0.92
				c-2.45,0-4.87-0.17-7.28-0.51C236.46,50.96,234.04,50.51,231.59,49.97z M261.85,0.19h11.29c-0.82,0-1.51,0.16-2.07,0.48
				c-0.57,0.32-1.03,0.75-1.39,1.29c-0.36,0.54-0.62,1.16-0.78,1.84c-0.16,0.68-0.24,1.38-0.24,2.11v40.46
				c0,0.73,0.08,1.43,0.24,2.11c0.16,0.68,0.42,1.29,0.78,1.84s0.83,0.98,1.39,1.29c0.57,0.32,1.26,0.48,2.07,0.48h-11.29
				c0.82,0,1.51-0.16,2.07-0.48c0.57-0.32,1.04-0.75,1.43-1.29c0.38-0.54,0.66-1.16,0.82-1.84c0.16-0.68,0.24-1.38,0.24-2.11V5.91
				c0-0.72-0.08-1.43-0.24-2.11c-0.16-0.68-0.43-1.29-0.82-1.84c-0.39-0.54-0.86-0.97-1.43-1.29
				C263.36,0.35,262.67,0.19,261.85,0.19z"/>
		</defs>
    <clipPath id="_x3C_Compound_Clipping_Path_x3E__00000124138201125869367650000010119899108142258087_">
        <use xlink:href="#_x3C_Compound_Clipping_Path_x3E__00000127753478546477131690000007542876393481759914_"/>
    </clipPath>
    <linearGradient id="SVGID_00000060027469984936491890000017308793189442167470_" gradientUnits="userSpaceOnUse" x1="-37.4935" y1="29" x2="381.5065" y2="29">
        <stop offset="0" stop-color="#2A120A"/>
        <stop offset="0.022" stop-color="#5E3D26"/>
        <stop offset="0.1645" stop-color="#A08C5E"/>
        <stop offset="0.4912" stop-color="#CBB086"/>
        <stop offset="0.5739" stop-color="#C9B084"/>
        <stop offset="0.6534" stop-color="#C0B17F"/>
        <stop offset="0.6796" stop-color="#BCB17D"/>
        <stop offset="0.8577" stop-color="#795B3B"/>
        <stop offset="1" stop-color="#785C3D" />
    </linearGradient>
    <rect x="-37.49" y="-0.5" style="clip-path:url(#_x3C_Compound_Clipping_Path_x3E__00000124138201125869367650000010119899108142258087_);fill:url(#SVGID_00000060027469984936491890000017308793189442167470_);" width="419" height="59"/>
</svg>
